<svg width="104" height="32" viewBox="0 0 104 32" fill="none" xmlns="http://www.w3.org/2000/svg">
<path d="M17 15C18.3807 15 19.5 13.8807 19.5 12.5C19.5 11.1193 18.3807 10 17 10C15.6193 10 14.5 11.1193 14.5 12.5C14.5 13.8807 15.6193 15 17 15Z" fill="#121212"/>
<path d="M22.25 10C23.2165 10 24 9.32843 24 8.5C24 7.67157 23.2165 7 22.25 7C21.2835 7 20.5 7.67157 20.5 8.5C20.5 9.32843 21.2835 10 22.25 10Z" fill="#121212"/>
<path d="M27.5 11.5C28.0523 11.5 28.5 11.0523 28.5 10.5C28.5 9.94772 28.0523 9.5 27.5 9.5C26.9477 9.5 26.5 9.94772 26.5 10.5C26.5 11.0523 26.9477 11.5 27.5 11.5Z" fill="#121212"/>
<path d="M29.25 14.5C29.6642 14.5 30 14.1642 30 13.75C30 13.3358 29.6642 13 29.25 13C28.8358 13 28.5 13.3358 28.5 13.75C28.5 14.1642 28.8358 14.5 29.25 14.5Z" fill="#121212"/>
<path d="M28.5183 21.3081C28.957 21.6435 29.043 22.2736 28.6799 22.6898C26.2123 25.5186 22.7919 27.3649 19.0486 27.8641C14.9738 28.4074 10.8501 27.3097 7.58456 24.8126C4.31909 22.3154 2.17933 18.6234 1.63603 14.5486C1.13692 10.8052 2.02264 7.02064 4.10601 3.89805C4.41252 3.43863 5.04316 3.35653 5.48186 3.69202L10.3153 7.38814C10.754 7.72364 10.8309 8.34864 10.5575 8.82849C9.75871 10.23 9.43421 11.8631 9.64981 13.4801C9.90971 15.4295 10.9334 17.1958 12.4956 18.3904C14.0579 19.5851 16.0307 20.1102 17.9801 19.8503C19.5971 19.6347 21.0881 18.8936 22.2314 17.7556C22.6228 17.366 23.2461 17.2764 23.6848 17.6119L28.5183 21.3081Z" fill="#C8D9F8"/>
<path d="M26.3406 19.5385C25.4279 20.8279 24.2646 21.92 22.9202 22.7495C21.5758 23.5791 20.0779 24.129 18.5162 24.3665C16.9544 24.6039 15.3608 24.524 13.8306 24.1315C12.3004 23.739 10.865 23.042 9.61036 22.0821C8.35571 21.1222 7.30751 19.9192 6.52841 18.5449C5.74931 17.1707 5.25531 15.6534 5.07596 14.0839C4.89663 12.5144 5.03561 10.9248 5.48461 9.41029C5.93366 7.89569 6.68346 6.48719 7.68921 5.26904L9.23411 6.54454C8.39981 7.55504 7.77786 8.72334 7.40536 9.97969C7.03291 11.236 6.91766 12.5546 7.06641 13.8565C7.21516 15.1584 7.62491 16.4169 8.27121 17.5569C8.91746 18.6968 9.78696 19.6947 10.8277 20.4909C11.8684 21.2872 13.059 21.8654 14.3283 22.1909C15.5976 22.5165 16.9195 22.5828 18.215 22.3859C19.5105 22.1889 20.753 21.7327 21.8682 21.0446C22.9834 20.3565 23.9483 19.4506 24.7054 18.381L26.3406 19.5385Z" fill="white"/>
<path d="M57.6 25.36C55.216 25.36 53.184 24.552 51.504 22.936C49.84 21.32 49.008 19.176 49.008 16.504C49.008 13.848 49.856 11.704 51.552 10.072C53.248 8.44 55.256 7.624 57.576 7.624C59.624 7.624 61.304 8.144 62.616 9.184C63.944 10.224 64.816 11.544 65.232 13.144L62.52 14.056C62.248 12.952 61.696 12.056 60.864 11.368C60.032 10.68 58.936 10.336 57.576 10.336C56.056 10.336 54.736 10.88 53.616 11.968C52.512 13.04 51.96 14.552 51.96 16.504C51.96 18.408 52.512 19.904 53.616 20.992C54.72 22.064 56.048 22.6 57.6 22.6C58.928 22.6 60.024 22.24 60.888 21.52C61.752 20.8 62.344 19.912 62.664 18.856L65.304 19.72C64.888 21.304 64.008 22.64 62.664 23.728C61.336 24.816 59.648 25.36 57.6 25.36ZM76.8195 25L73.2435 18.28H71.1315V25H68.2275V7.984H74.7555C76.3555 7.984 77.6435 8.48 78.6195 9.472C79.5955 10.448 80.0835 11.672 80.0835 13.144C80.0835 14.36 79.7395 15.4 79.0515 16.264C78.3635 17.128 77.4275 17.704 76.2435 17.992L80.0835 25H76.8195ZM71.1315 15.736H74.2275C75.1075 15.736 75.8115 15.504 76.3395 15.04C76.8835 14.56 77.1555 13.928 77.1555 13.144C77.1555 12.344 76.8835 11.712 76.3395 11.248C75.8115 10.768 75.1075 10.528 74.2275 10.528H71.1315V15.736ZM101.877 25H99.0212V12.472L93.7172 25H91.2212L85.9652 12.52V25H83.1572V7.984H86.9972L92.5172 20.968L97.9652 7.984H101.877V25Z" fill="black"/>
</svg>
