<svg width="29" height="25" viewBox="0 0 29 25" fill="none" xmlns="http://www.w3.org/2000/svg">
<path d="M16 12C17.3807 12 18.5 10.8807 18.5 9.5C18.5 8.11929 17.3807 7 16 7C14.6193 7 13.5 8.11929 13.5 9.5C13.5 10.8807 14.6193 12 16 12Z" fill="#121212"/>
<path d="M21.25 7C22.2165 7 23 6.32843 23 5.5C23 4.67157 22.2165 4 21.25 4C20.2835 4 19.5 4.67157 19.5 5.5C19.5 6.32843 20.2835 7 21.25 7Z" fill="#121212"/>
<path d="M26.5 8.5C27.0523 8.5 27.5 8.05228 27.5 7.5C27.5 6.94772 27.0523 6.5 26.5 6.5C25.9477 6.5 25.5 6.94772 25.5 7.5C25.5 8.05228 25.9477 8.5 26.5 8.5Z" fill="#121212"/>
<path d="M28.25 11.5C28.6642 11.5 29 11.1642 29 10.75C29 10.3358 28.6642 10 28.25 10C27.8358 10 27.5 10.3358 27.5 10.75C27.5 11.1642 27.8358 11.5 28.25 11.5Z" fill="#121212"/>
<path d="M27.5183 18.3081C27.957 18.6435 28.043 19.2736 27.6799 19.6898C25.2123 22.5186 21.7919 24.3649 18.0486 24.8641C13.9738 25.4074 9.85006 24.3097 6.58456 21.8126C3.31909 19.3154 1.17933 15.6234 0.63603 11.5486C0.13692 7.80524 1.02264 4.02064 3.10601 0.898048C3.41252 0.438628 4.04316 0.356533 4.48186 0.692018L9.31526 4.38814C9.75401 4.72364 9.83091 5.34864 9.55746 5.82849C8.75871 7.22999 8.43421 8.86309 8.64981 10.4801C8.90971 12.4295 9.93341 14.1958 11.4956 15.3904C13.0579 16.5851 15.0307 17.1102 16.9801 16.8503C18.5971 16.6347 20.0881 15.8936 21.2314 14.7556C21.6228 14.366 22.2461 14.2764 22.6848 14.6119L27.5183 18.3081Z" fill="#C8D9F8"/>
<path d="M25.3406 16.5385C24.4279 17.8279 23.2646 18.92 21.9202 19.7495C20.5758 20.5791 19.0779 21.129 17.5162 21.3665C15.9544 21.6039 14.3608 21.524 12.8306 21.1315C11.3004 20.739 9.86501 20.042 8.61036 19.0821C7.35571 18.1222 6.30751 16.9192 5.52841 15.5449C4.74931 14.1707 4.25531 12.6534 4.07596 11.0839C3.89663 9.51439 4.03561 7.92484 4.48461 6.41029C4.93366 4.89569 5.68346 3.48719 6.68921 2.26904L8.23411 3.54454C7.39981 4.55504 6.77786 5.72334 6.40536 6.97969C6.03291 8.23604 5.91766 9.55459 6.06641 10.8565C6.21516 12.1584 6.62491 13.4169 7.27121 14.5569C7.91746 15.6968 8.78696 16.6947 9.82771 17.4909C10.8684 18.2872 12.059 18.8654 13.3283 19.1909C14.5976 19.5165 15.9195 19.5828 17.215 19.3859C18.5105 19.1889 19.753 18.7327 20.8682 18.0446C21.9834 17.3565 22.9483 16.4506 23.7054 15.381L25.3406 16.5385Z" fill="white"/>
</svg>
